PathFileType	4	(X/Y/Z) flx_0kg_1.trc																										
DataRate	CameraRate	NumFrames	NumMarkers	Units	OrigDataRate	OrigDataStartFrame	OrigNumFrames																					
100	100	44	9	mm	100	497	794																					
Frame#	Time	gu			centelbow			EpL			centpxt8			centijc7			ij			ts			aa			ai		
		X1	Y1	Z1	X2	Y2	Z2	X3	Y3	Z3	X4	Y4	Z4	X5	Y5	Z5	X6	Y6	Z6	X7	Y7	Z7	X8	Y8	Z8	X9	Y9	Z9  
496	4.96	-75.662	35.35	147.71	124.077	-77.515	239.091	128.2	-49.3	254.137	-46.816	-153.158	-8.669	-46.816	31.938	-8.669	0	0	0	-153.869	6.72	52.011	-108.828	48.86	154.091	-138.093	-97.493	94.161
497	4.97	-75.771	35.218	147.49	122.507	-80.504	238.476	126.959	-52.414	253.661	-46.816	-153.158	-8.669	-46.816	31.938	-8.669	0	0	0	-153.31	7.487	51.776	-108.308	48.627	154.281	-137.738	-97.129	92.991
498	4.98	-75.956	34.251	147.939	120.515	-84.547	238.881	125.303	-56.592	254.21	-46.816	-153.158	-8.669	-46.816	31.938	-8.669	0	0	0	-152.952	7.874	52.053	-108.11	48.032	155.016	-137.784	-97.125	92.437
499	4.99	-75.803	32.613	148.897	118.627	-89.459	239.891	123.757	-61.657	255.389	-46.816	-153.158	-8.669	-46.816	31.938	-8.669	0	0	0	-152.851	7.827	52.646	-108.211	46.947	156.095	-138.277	-97.564	92.22
500	5	-75.275	30.936	149.769	117.142	-94.403	240.601	122.605	-66.775	256.294	-46.816	-153.158	-8.669	-46.816	31.938	-8.669	0	0	0	-152.866	7.699	52.993	-108.367	45.71	156.915	-138.907	-98.098	91.693
501	5.01	-74.508	29.606	150.504	116.043	-98.82	240.956	121.815	-71.375	256.859	-46.816	-153.158	-8.669	-46.816	31.938	-8.669	0	0	0	-152.821	7.78	52.832	-108.383	44.634	157.196	-139.336	-98.431	90.552
502	5.02	-73.853	28.467	151.413	114.941	-102.824	241.433	120.994	-75.562	257.544	-46.816	-153.158	-8.669	-46.816	31.938	-8.669	0	0	0	-152.564	8.014	52.359	-108.15	43.69	157.142	-139.377	-98.61	89.004
503	5.03	-73.806	27.299	152.189	113.375	-106.628	241.694	119.697	-79.538	257.99	-46.816	-153.158	-8.669	-46.816	31.938	-8.669	0	0	0	-152.173	8.312	51.789	-107.782	42.843	156.965	-139.133	-98.704	87.33
504	5.04	-74.325	26.218	152.152	111.501	-110.091	240.882	118.095	-83.159	257.332	-46.816	-153.158	-8.669	-46.816	31.938	-8.669	0	0	0	-151.851	8.732	51.266	-107.515	42.237	156.795	-138.847	-98.625	85.778
505	5.05	-74.696	25.371	151.371	110	-113.085	239.131	116.862	-86.299	255.71	-46.816	-153.158	-8.669	-46.816	31.938	-8.669	0	0	0	-151.569	9.255	50.991	-107.351	41.892	156.842	-138.575	-98.382	84.622
506	5.06	-74.565	24.644	150.728	108.977	-115.854	237.659	116.091	-89.209	254.358	-46.816	-153.158	-8.669	-46.816	31.938	-8.669	0	0	0	-151.225	9.711	51.118	-107.172	41.567	157.275	-138.343	-98.17	84.001
507	5.07	-74.267	23.901	150.929	107.84	-118.74	237.386	115.191	-92.241	254.214	-46.816	-153.158	-8.669	-46.816	31.938	-8.669	0	0	0	-150.879	9.956	51.662	-106.993	41.003	158.127	-138.289	-98.171	83.842
508	5.08	-73.97	23.176	151.939	106.362	-121.858	238.136	113.949	-95.528	255.125	-46.816	-153.158	-8.669	-46.816	31.938	-8.669	0	0	0	-150.62	10.025	52.427	-106.864	40.148	159.212	-138.468	-98.376	83.848
509	5.09	-73.552	22.29	153.403	104.75	-125.426	239.267	112.594	-99.296	256.447	-46.816	-153.158	-8.669	-46.816	31.938	-8.669	0	0	0	-150.539	10.038	53.027	-106.841	39.119	160.123	-138.866	-98.661	83.584
510	5.1	-73.125	20.906	155.001	103.039	-129.689	240.276	111.169	-103.785	257.664	-46.816	-153.158	-8.669	-46.816	31.938	-8.669	0	0	0	-150.682	10.037	53.217	-106.962	38.023	160.595	-139.432	-98.967	82.834
511	5.11	-72.987	19.214	156.207	101.208	-134.161	240.568	109.631	-108.49	258.159	-46.816	-153.158	-8.669	-46.816	31.938	-8.669	0	0	0	-150.886	10.036	53.118	-107.118	36.953	160.75	-139.948	-99.256	81.778
512	5.12	-73.24	17.846	156.451	99.444	-137.882	239.599	108.142	-112.421	257.361	-46.816	-153.158	-8.669	-46.816	31.938	-8.669	0	0	0	-150.892	10.126	53.006	-107.114	36.028	160.882	-140.151	-99.43	80.715
513	5.13	-73.628	17.084	155.844	98.015	-140.473	237.689	106.957	-115.183	255.574	-46.816	-153.158	-8.669	-46.816	31.938	-8.669	0	0	0	-150.681	10.344	53.074	-106.935	35.267	161.193	-140.075	-99.459	79.842
514	5.14	-73.788	16.703	155.213	97.005	-142.339	235.958	106.159	-117.185	253.927	-46.816	-153.158	-8.669	-46.816	31.938	-8.669	0	0	0	-150.501	10.629	53.318	-106.776	34.602	161.661	-140.061	-99.404	79.188
515	5.15	-73.577	16.411	155.145	96.224	-144.082	235.108	105.574	-119.054	253.153	-46.816	-153.158	-8.669	-46.816	31.938	-8.669	0	0	0	-150.418	10.954	53.518	-106.645	34.022	162.038	-140.238	-99.292	78.575
516	5.16	-73.141	15.989	155.561	95.255	-146.266	234.936	104.822	-121.387	253.073	-46.816	-153.158	-8.669	-46.816	31.938	-8.669	0	0	0	-150.196	11.251	53.606	-106.304	33.456	162.258	-140.386	-99.191	77.934
517	5.17	-72.71	15.154	156.357	93.667	-149.461	235.128	103.506	-124.784	253.396	-46.816	-153.158	-8.669	-46.816	31.938	-8.669	0	0	0	-149.842	11.284	53.958	-105.846	32.619	162.742	-140.523	-99.35	77.601
518	5.18	-72.293	13.777	157.547	91.564	-153.732	235.496	101.712	-129.327	253.957	-46.816	-153.158	-8.669	-46.816	31.938	-8.669	0	0	0	-149.693	10.926	54.805	-105.67	31.351	163.753	-140.953	-99.9	77.756
519	5.19	-71.767	12.216	158.672	89.58	-158.228	235.485	100.027	-134.128	254.179	-46.816	-153.158	-8.669	-46.816	31.938	-8.669	0	0	0	-149.815	10.531	55.622	-105.771	30.018	164.733	-141.59	-100.487	77.827
520	5.2	-71.302	11.002	159.044	88.035	-161.897	234.555	98.739	-138.074	253.457	-46.816	-153.158	-8.669	-46.816	31.938	-8.669	0	0	0	-149.926	10.587	55.711	-105.765	29.161	164.934	-142.006	-100.611	77.111
521	5.21	-71.11	10.209	158.685	86.707	-164.586	233.011	97.641	-140.977	252.05	-46.816	-153.158	-8.669	-46.816	31.938	-8.669	0	0	0	-149.843	11.066	55.12	-105.504	28.799	164.411	-142.037	-100.292	75.71
522	5.22	-71.067	9.519	158.21	85.379	-166.882	231.637	96.542	-143.438	250.747	-46.816	-153.158	-8.669	-46.816	31.938	-8.669	0	0	0	-149.631	11.538	54.53	-105.175	28.521	163.891	-141.871	-99.959	74.374
523	5.23	-71.074	8.824	157.991	83.836	-169.194	230.773	95.243	-145.899	249.921	-46.816	-153.158	-8.669	-46.816	31.938	-8.669	0	0	0	-149.452	11.765	54.438	-104.98	28.089	163.894	-141.746	-99.85	73.633
524	5.24	-71.253	8.337	158.043	81.767	-171.513	230.314	93.44	-148.386	249.506	-46.816	-153.158	-8.669	-46.816	31.938	-8.669	0	0	0	-149.393	11.83	54.716	-104.929	27.552	164.263	-141.782	-99.889	73.336
525	5.25	-71.454	8.209	158.313	79.257	-173.767	230.115	91.22	-150.843	249.371	-46.816	-153.158	-8.669	-46.816	31.938	-8.669	0	0	0	-149.364	11.989	54.919	-104.834	27.117	164.523	-141.903	-99.829	72.993
526	5.26	-71.188	8.147	158.764	76.861	-176.183	230.097	89.136	-153.492	249.432	-46.816	-153.158	-8.669	-46.816	31.938	-8.669	0	0	0	-149.218	12.509	54.869	-104.531	27.003	164.495	-141.967	-99.412	72.38
527	5.27	-70.418	7.517	159.407	74.764	-179.269	230.243	87.354	-156.834	249.675	-46.816	-153.158	-8.669	-46.816	31.938	-8.669	0	0	0	-148.963	13.284	54.798	-104.094	27.053	164.443	-141.994	-98.751	71.685
528	5.28	-69.753	6.089	160.092	72.575	-183.109	230.314	85.455	-160.949	249.87	-46.816	-153.158	-8.669	-46.816	31.938	-8.669	0	0	0	-148.759	13.844	54.961	-103.759	26.772	164.655	-142.155	-98.318	71.138
529	5.29	-69.573	4.455	160.413	70.234	-186.923	229.787	83.363	-165.038	249.488	-46.816	-153.158	-8.669	-46.816	31.938	-8.669	0	0	0	-148.792	14.038	55.198	-103.735	26.084	164.969	-142.556	-98.251	70.624
530	5.3	-69.726	3.295	160.291	68.017	-189.94	228.641	81.363	-168.308	248.474	-46.816	-153.158	-8.669	-46.816	31.938	-8.669	0	0	0	-149.082	14.206	55.178	-104.002	25.448	165.025	-143.107	-98.193	69.889
531	5.31	-70.016	2.63	160.16	65.856	-192.262	227.542	79.416	-170.856	247.476	-46.816	-153.158	-8.669	-46.816	31.938	-8.669	0	0	0	-149.275	14.624	55.093	-104.183	25.136	165.007	-143.513	-97.87	69.144
532	5.32	-70.254	2.149	160.235	63.628	-194.395	226.799	77.425	-173.205	246.802	-46.816	-153.158	-8.669	-46.816	31.938	-8.669	0	0	0	-148.952	15.302	55.607	-103.859	25.039	165.592	-143.586	-97.289	69.027
533	5.33	-70.197	1.698	160.216	61.491	-196.59	225.979	75.562	-175.623	246.025	-46.816	-153.158	-8.669	-46.816	31.938	-8.669	0	0	0	-148.256	16.059	56.82	-103.088	24.884	166.851	-143.62	-96.639	69.606
534	5.34	-69.793	1.228	159.986	59.49	-198.92	224.877	73.863	-178.197	244.962	-46.816	-153.158	-8.669	-46.816	31.938	-8.669	0	0	0	-147.821	16.5	57.802	-102.351	24.316	167.784	-144.135	-96.304	69.946
535	5.35	-69.24	0.581	160.048	57.352	-201.551	224.091	72.023	-181.101	244.239	-46.816	-153.158	-8.669	-46.816	31.938	-8.669	0	0	0	-147.949	16.349	57.819	-101.95	23.182	167.647	-145.17	-96.545	69.338
536	5.36	-68.733	-0.303	160.752	54.945	-204.462	224.053	69.882	-184.305	244.301	-46.816	-153.158	-8.669	-46.816	31.938	-8.669	0	0	0	-148.25	15.921	57.234	-101.706	21.891	166.883	-146.135	-97.048	68.157
537	5.37	-68.227	-1.084	161.571	52.614	-207.142	224.197	67.786	-187.272	244.555	-46.816	-153.158	-8.669	-46.816	31.938	-8.669	0	0	0	-148.312	15.906	56.643	-101.383	21.153	166.164	-146.579	-97.123	66.991
538	5.38	-67.596	-1.577	161.899	50.63	-209.34	223.88	66.027	-189.733	244.324	-46.816	-153.158	-8.669	-46.816	31.938	-8.669	0	0	0	-148.246	16.53	56.203	-101.107	21.153	165.663	-146.737	-96.551	66.009
539	5.39	-67.028	-2.158	161.943	48.611	-211.539	223.356	64.246	-192.182	243.856	-46.816	-153.158	-8.669	-46.816	31.938	-8.669	0	0	0	-148.291	17.266	55.973	-101.061	21.317	165.415	-147.043	-95.858	65.301
